<mxfile host="app.diagrams.net" modified="2022-10-18T08:58:39.290Z" agent="5.0 (Windows NT 10.0; Win64; x64) AppleWebKit/537.36 (KHTML, like Gecko) Chrome/106.0.0.0 Safari/537.36" etag="LHBKBC7-_qMn2tWkhOBH" version="20.4.1" type="github">
  <diagram id="Cr2ft3EUCLHrSJw7Iuv8" name="第 1 页">
    <mxGraphModel dx="1338" dy="1036" grid="1" gridSize="10" guides="1" tooltips="1" connect="1" arrows="1" fold="1" page="1" pageScale="1" pageWidth="1169" pageHeight="827" math="0" shadow="0">
      <root>
        <mxCell id="0" />
        <mxCell id="1" parent="0" />
        <mxCell id="37ncI2-MZNdE6VhE76FK-1" value="Server-1" style="rounded=1;whiteSpace=wrap;html=1;fillColor=#d5e8d4;strokeColor=#82b366;" vertex="1" parent="1">
          <mxGeometry x="890" y="100" width="220" height="140" as="geometry" />
        </mxCell>
        <mxCell id="37ncI2-MZNdE6VhE76FK-2" value="Agent" style="rounded=1;whiteSpace=wrap;html=1;fillColor=#fff2cc;strokeColor=#d6b656;" vertex="1" parent="1">
          <mxGeometry x="890" y="100" width="80" height="50" as="geometry" />
        </mxCell>
        <mxCell id="37ncI2-MZNdE6VhE76FK-3" value="Worker" style="rounded=1;whiteSpace=wrap;html=1;fillColor=#fff2cc;strokeColor=#d6b656;" vertex="1" parent="1">
          <mxGeometry x="890" y="190" width="80" height="50" as="geometry" />
        </mxCell>
        <mxCell id="37ncI2-MZNdE6VhE76FK-5" value="Borker&lt;br&gt;(消息队列)" style="shape=cylinder3;whiteSpace=wrap;html=1;boundedLbl=1;backgroundOutline=1;size=15;fillColor=#d80073;fontColor=#ffffff;strokeColor=#A50040;" vertex="1" parent="1">
          <mxGeometry x="680" y="310" width="75" height="80" as="geometry" />
        </mxCell>
        <mxCell id="37ncI2-MZNdE6VhE76FK-6" value="start" style="rounded=1;whiteSpace=wrap;html=1;fillColor=#60a917;fontColor=#ffffff;strokeColor=#2D7600;" vertex="1" parent="1">
          <mxGeometry x="40" y="340" width="80" height="40" as="geometry" />
        </mxCell>
        <mxCell id="37ncI2-MZNdE6VhE76FK-7" value="task1_server1" style="rounded=1;whiteSpace=wrap;html=1;fillColor=#60a917;fontColor=#ffffff;strokeColor=#2D7600;" vertex="1" parent="1">
          <mxGeometry x="150" y="250" width="80" height="40" as="geometry" />
        </mxCell>
        <mxCell id="37ncI2-MZNdE6VhE76FK-8" value="task1_server2" style="rounded=1;whiteSpace=wrap;html=1;fillColor=#60a917;fontColor=#ffffff;strokeColor=#2D7600;" vertex="1" parent="1">
          <mxGeometry x="150" y="340" width="80" height="40" as="geometry" />
        </mxCell>
        <mxCell id="37ncI2-MZNdE6VhE76FK-9" value="task1_server3" style="rounded=1;whiteSpace=wrap;html=1;fillColor=#60a917;fontColor=#ffffff;strokeColor=#2D7600;" vertex="1" parent="1">
          <mxGeometry x="150" y="430" width="80" height="40" as="geometry" />
        </mxCell>
        <mxCell id="37ncI2-MZNdE6VhE76FK-10" value="Task1" style="text;html=1;align=center;verticalAlign=middle;resizable=0;points=[];autosize=1;strokeColor=none;fillColor=none;" vertex="1" parent="1">
          <mxGeometry x="165" y="200" width="50" height="30" as="geometry" />
        </mxCell>
        <mxCell id="37ncI2-MZNdE6VhE76FK-11" value="task2_server2" style="rounded=1;whiteSpace=wrap;html=1;fillColor=#60a917;fontColor=#ffffff;strokeColor=#2D7600;" vertex="1" parent="1">
          <mxGeometry x="260" y="340" width="80" height="40" as="geometry" />
        </mxCell>
        <mxCell id="37ncI2-MZNdE6VhE76FK-12" value="Task2" style="text;html=1;align=center;verticalAlign=middle;resizable=0;points=[];autosize=1;strokeColor=none;fillColor=none;" vertex="1" parent="1">
          <mxGeometry x="275" y="200" width="50" height="30" as="geometry" />
        </mxCell>
        <mxCell id="37ncI2-MZNdE6VhE76FK-13" value="task3_server1" style="rounded=1;whiteSpace=wrap;html=1;fillColor=#60a917;fontColor=#ffffff;strokeColor=#2D7600;" vertex="1" parent="1">
          <mxGeometry x="380" y="250" width="80" height="40" as="geometry" />
        </mxCell>
        <mxCell id="37ncI2-MZNdE6VhE76FK-14" value="task3_server2" style="rounded=1;whiteSpace=wrap;html=1;fillColor=#60a917;fontColor=#ffffff;strokeColor=#2D7600;" vertex="1" parent="1">
          <mxGeometry x="380" y="340" width="80" height="40" as="geometry" />
        </mxCell>
        <mxCell id="37ncI2-MZNdE6VhE76FK-15" value="task3_server3" style="rounded=1;whiteSpace=wrap;html=1;fillColor=#60a917;fontColor=#ffffff;strokeColor=#2D7600;" vertex="1" parent="1">
          <mxGeometry x="380" y="430" width="80" height="40" as="geometry" />
        </mxCell>
        <mxCell id="37ncI2-MZNdE6VhE76FK-16" value="Task3" style="text;html=1;align=center;verticalAlign=middle;resizable=0;points=[];autosize=1;strokeColor=none;fillColor=none;" vertex="1" parent="1">
          <mxGeometry x="395" y="200" width="50" height="30" as="geometry" />
        </mxCell>
        <mxCell id="37ncI2-MZNdE6VhE76FK-17" value="" style="endArrow=classic;html=1;rounded=0;exitX=1;exitY=0.5;exitDx=0;exitDy=0;entryX=0;entryY=0.5;entryDx=0;entryDy=0;" edge="1" parent="1" source="37ncI2-MZNdE6VhE76FK-6" target="37ncI2-MZNdE6VhE76FK-8">
          <mxGeometry width="50" height="50" relative="1" as="geometry">
            <mxPoint x="560" y="480" as="sourcePoint" />
            <mxPoint x="610" y="430" as="targetPoint" />
          </mxGeometry>
        </mxCell>
        <mxCell id="37ncI2-MZNdE6VhE76FK-18" value="" style="endArrow=classic;html=1;rounded=0;exitX=1;exitY=0.5;exitDx=0;exitDy=0;entryX=0;entryY=0.5;entryDx=0;entryDy=0;" edge="1" parent="1" source="37ncI2-MZNdE6VhE76FK-6" target="37ncI2-MZNdE6VhE76FK-7">
          <mxGeometry width="50" height="50" relative="1" as="geometry">
            <mxPoint x="560" y="480" as="sourcePoint" />
            <mxPoint x="610" y="430" as="targetPoint" />
          </mxGeometry>
        </mxCell>
        <mxCell id="37ncI2-MZNdE6VhE76FK-19" value="" style="endArrow=classic;html=1;rounded=0;entryX=0;entryY=0.5;entryDx=0;entryDy=0;" edge="1" parent="1" target="37ncI2-MZNdE6VhE76FK-9">
          <mxGeometry width="50" height="50" relative="1" as="geometry">
            <mxPoint x="120" y="360" as="sourcePoint" />
            <mxPoint x="160" y="280" as="targetPoint" />
          </mxGeometry>
        </mxCell>
        <mxCell id="37ncI2-MZNdE6VhE76FK-20" value="" style="endArrow=classic;html=1;rounded=0;exitX=1;exitY=0.5;exitDx=0;exitDy=0;entryX=0;entryY=0.5;entryDx=0;entryDy=0;" edge="1" parent="1" source="37ncI2-MZNdE6VhE76FK-7" target="37ncI2-MZNdE6VhE76FK-11">
          <mxGeometry width="50" height="50" relative="1" as="geometry">
            <mxPoint x="560" y="480" as="sourcePoint" />
            <mxPoint x="610" y="430" as="targetPoint" />
          </mxGeometry>
        </mxCell>
        <mxCell id="37ncI2-MZNdE6VhE76FK-21" value="" style="endArrow=classic;html=1;rounded=0;exitX=1;exitY=0.5;exitDx=0;exitDy=0;entryX=0;entryY=0.5;entryDx=0;entryDy=0;" edge="1" parent="1" source="37ncI2-MZNdE6VhE76FK-8" target="37ncI2-MZNdE6VhE76FK-11">
          <mxGeometry width="50" height="50" relative="1" as="geometry">
            <mxPoint x="560" y="480" as="sourcePoint" />
            <mxPoint x="610" y="430" as="targetPoint" />
          </mxGeometry>
        </mxCell>
        <mxCell id="37ncI2-MZNdE6VhE76FK-22" value="" style="endArrow=classic;html=1;rounded=0;exitX=1;exitY=0.5;exitDx=0;exitDy=0;entryX=0;entryY=0.5;entryDx=0;entryDy=0;" edge="1" parent="1" source="37ncI2-MZNdE6VhE76FK-9" target="37ncI2-MZNdE6VhE76FK-11">
          <mxGeometry width="50" height="50" relative="1" as="geometry">
            <mxPoint x="560" y="480" as="sourcePoint" />
            <mxPoint x="610" y="430" as="targetPoint" />
          </mxGeometry>
        </mxCell>
        <mxCell id="37ncI2-MZNdE6VhE76FK-23" value="" style="endArrow=classic;html=1;rounded=0;entryX=0;entryY=0.5;entryDx=0;entryDy=0;exitX=1;exitY=0.5;exitDx=0;exitDy=0;" edge="1" parent="1" source="37ncI2-MZNdE6VhE76FK-11" target="37ncI2-MZNdE6VhE76FK-13">
          <mxGeometry width="50" height="50" relative="1" as="geometry">
            <mxPoint x="560" y="480" as="sourcePoint" />
            <mxPoint x="610" y="430" as="targetPoint" />
          </mxGeometry>
        </mxCell>
        <mxCell id="37ncI2-MZNdE6VhE76FK-24" value="" style="endArrow=classic;html=1;rounded=0;entryX=0;entryY=0.5;entryDx=0;entryDy=0;exitX=1;exitY=0.5;exitDx=0;exitDy=0;" edge="1" parent="1" source="37ncI2-MZNdE6VhE76FK-11" target="37ncI2-MZNdE6VhE76FK-14">
          <mxGeometry width="50" height="50" relative="1" as="geometry">
            <mxPoint x="560" y="480" as="sourcePoint" />
            <mxPoint x="610" y="430" as="targetPoint" />
          </mxGeometry>
        </mxCell>
        <mxCell id="37ncI2-MZNdE6VhE76FK-25" value="" style="endArrow=classic;html=1;rounded=0;exitX=1;exitY=0.5;exitDx=0;exitDy=0;entryX=0;entryY=0.5;entryDx=0;entryDy=0;" edge="1" parent="1" source="37ncI2-MZNdE6VhE76FK-11" target="37ncI2-MZNdE6VhE76FK-15">
          <mxGeometry width="50" height="50" relative="1" as="geometry">
            <mxPoint x="560" y="480" as="sourcePoint" />
            <mxPoint x="610" y="430" as="targetPoint" />
          </mxGeometry>
        </mxCell>
        <mxCell id="37ncI2-MZNdE6VhE76FK-26" value="end" style="rounded=1;whiteSpace=wrap;html=1;fillColor=#60a917;fontColor=#ffffff;strokeColor=#2D7600;" vertex="1" parent="1">
          <mxGeometry x="500" y="340" width="80" height="40" as="geometry" />
        </mxCell>
        <mxCell id="37ncI2-MZNdE6VhE76FK-27" value="" style="endArrow=classic;html=1;rounded=0;exitX=1;exitY=0.5;exitDx=0;exitDy=0;entryX=0;entryY=0.5;entryDx=0;entryDy=0;" edge="1" parent="1" source="37ncI2-MZNdE6VhE76FK-13" target="37ncI2-MZNdE6VhE76FK-26">
          <mxGeometry width="50" height="50" relative="1" as="geometry">
            <mxPoint x="560" y="480" as="sourcePoint" />
            <mxPoint x="610" y="430" as="targetPoint" />
          </mxGeometry>
        </mxCell>
        <mxCell id="37ncI2-MZNdE6VhE76FK-28" value="" style="endArrow=classic;html=1;rounded=0;exitX=1;exitY=0.5;exitDx=0;exitDy=0;entryX=0;entryY=0.5;entryDx=0;entryDy=0;" edge="1" parent="1" source="37ncI2-MZNdE6VhE76FK-14" target="37ncI2-MZNdE6VhE76FK-26">
          <mxGeometry width="50" height="50" relative="1" as="geometry">
            <mxPoint x="560" y="480" as="sourcePoint" />
            <mxPoint x="610" y="430" as="targetPoint" />
          </mxGeometry>
        </mxCell>
        <mxCell id="37ncI2-MZNdE6VhE76FK-29" value="" style="endArrow=classic;html=1;rounded=0;exitX=1;exitY=0.5;exitDx=0;exitDy=0;entryX=0;entryY=0.5;entryDx=0;entryDy=0;" edge="1" parent="1" source="37ncI2-MZNdE6VhE76FK-15" target="37ncI2-MZNdE6VhE76FK-26">
          <mxGeometry width="50" height="50" relative="1" as="geometry">
            <mxPoint x="560" y="480" as="sourcePoint" />
            <mxPoint x="610" y="430" as="targetPoint" />
          </mxGeometry>
        </mxCell>
        <mxCell id="37ncI2-MZNdE6VhE76FK-30" value="" style="swimlane;startSize=0;" vertex="1" parent="1">
          <mxGeometry x="30" y="70" width="560" height="540" as="geometry" />
        </mxCell>
        <mxCell id="37ncI2-MZNdE6VhE76FK-31" value="运维工作流 WorkFlow" style="text;html=1;align=center;verticalAlign=middle;resizable=0;points=[];autosize=1;strokeColor=none;fillColor=none;" vertex="1" parent="37ncI2-MZNdE6VhE76FK-30">
          <mxGeometry y="20" width="140" height="30" as="geometry" />
        </mxCell>
        <mxCell id="37ncI2-MZNdE6VhE76FK-32" value="Server-2" style="rounded=1;whiteSpace=wrap;html=1;fillColor=#d5e8d4;strokeColor=#82b366;" vertex="1" parent="1">
          <mxGeometry x="890" y="280" width="220" height="140" as="geometry" />
        </mxCell>
        <mxCell id="37ncI2-MZNdE6VhE76FK-33" value="Agent" style="rounded=1;whiteSpace=wrap;html=1;fillColor=#fff2cc;strokeColor=#d6b656;" vertex="1" parent="1">
          <mxGeometry x="890" y="280" width="80" height="50" as="geometry" />
        </mxCell>
        <mxCell id="37ncI2-MZNdE6VhE76FK-34" value="Worker" style="rounded=1;whiteSpace=wrap;html=1;fillColor=#fff2cc;strokeColor=#d6b656;" vertex="1" parent="1">
          <mxGeometry x="890" y="370" width="80" height="50" as="geometry" />
        </mxCell>
        <mxCell id="37ncI2-MZNdE6VhE76FK-35" value="Server-3" style="rounded=1;whiteSpace=wrap;html=1;fillColor=#d5e8d4;strokeColor=#82b366;" vertex="1" parent="1">
          <mxGeometry x="890" y="460" width="220" height="140" as="geometry" />
        </mxCell>
        <mxCell id="37ncI2-MZNdE6VhE76FK-36" value="Agent" style="rounded=1;whiteSpace=wrap;html=1;fillColor=#fff2cc;strokeColor=#d6b656;" vertex="1" parent="1">
          <mxGeometry x="890" y="460" width="80" height="50" as="geometry" />
        </mxCell>
        <mxCell id="37ncI2-MZNdE6VhE76FK-37" value="Worker" style="rounded=1;whiteSpace=wrap;html=1;fillColor=#fff2cc;strokeColor=#d6b656;" vertex="1" parent="1">
          <mxGeometry x="890" y="550" width="80" height="50" as="geometry" />
        </mxCell>
        <mxCell id="37ncI2-MZNdE6VhE76FK-39" value="" style="shape=flexArrow;endArrow=classic;html=1;rounded=0;entryX=-0.007;entryY=0.592;entryDx=0;entryDy=0;entryPerimeter=0;exitX=0.999;exitY=0.534;exitDx=0;exitDy=0;exitPerimeter=0;fillColor=#60a917;strokeColor=#2D7600;" edge="1" parent="1" source="37ncI2-MZNdE6VhE76FK-30" target="37ncI2-MZNdE6VhE76FK-5">
          <mxGeometry width="50" height="50" relative="1" as="geometry">
            <mxPoint x="560" y="540" as="sourcePoint" />
            <mxPoint x="610" y="490" as="targetPoint" />
          </mxGeometry>
        </mxCell>
        <mxCell id="37ncI2-MZNdE6VhE76FK-40" value="所有运维操作&lt;br&gt;消息下发" style="text;html=1;align=center;verticalAlign=middle;resizable=0;points=[];autosize=1;strokeColor=none;fillColor=none;" vertex="1" parent="1">
          <mxGeometry x="580" y="310" width="100" height="40" as="geometry" />
        </mxCell>
        <mxCell id="37ncI2-MZNdE6VhE76FK-41" value="" style="endArrow=classic;html=1;rounded=0;entryX=0;entryY=0.5;entryDx=0;entryDy=0;exitX=1;exitY=0.5;exitDx=0;exitDy=0;exitPerimeter=0;" edge="1" parent="1" source="37ncI2-MZNdE6VhE76FK-5" target="37ncI2-MZNdE6VhE76FK-3">
          <mxGeometry width="50" height="50" relative="1" as="geometry">
            <mxPoint x="560" y="450" as="sourcePoint" />
            <mxPoint x="610" y="400" as="targetPoint" />
          </mxGeometry>
        </mxCell>
        <mxCell id="37ncI2-MZNdE6VhE76FK-42" value="" style="endArrow=classic;html=1;rounded=0;entryX=0;entryY=0.5;entryDx=0;entryDy=0;exitX=1;exitY=0.5;exitDx=0;exitDy=0;exitPerimeter=0;" edge="1" parent="1" source="37ncI2-MZNdE6VhE76FK-5" target="37ncI2-MZNdE6VhE76FK-34">
          <mxGeometry width="50" height="50" relative="1" as="geometry">
            <mxPoint x="560" y="450" as="sourcePoint" />
            <mxPoint x="610" y="400" as="targetPoint" />
          </mxGeometry>
        </mxCell>
        <mxCell id="37ncI2-MZNdE6VhE76FK-43" value="" style="endArrow=classic;html=1;rounded=0;entryX=0;entryY=0.5;entryDx=0;entryDy=0;exitX=1;exitY=0.5;exitDx=0;exitDy=0;exitPerimeter=0;" edge="1" parent="1" source="37ncI2-MZNdE6VhE76FK-5" target="37ncI2-MZNdE6VhE76FK-37">
          <mxGeometry width="50" height="50" relative="1" as="geometry">
            <mxPoint x="560" y="450" as="sourcePoint" />
            <mxPoint x="610" y="400" as="targetPoint" />
          </mxGeometry>
        </mxCell>
        <mxCell id="37ncI2-MZNdE6VhE76FK-44" value="" style="endArrow=classic;startArrow=classic;html=1;rounded=0;entryX=0.5;entryY=1;entryDx=0;entryDy=0;exitX=0.5;exitY=0;exitDx=0;exitDy=0;" edge="1" parent="1" source="37ncI2-MZNdE6VhE76FK-37" target="37ncI2-MZNdE6VhE76FK-36">
          <mxGeometry width="50" height="50" relative="1" as="geometry">
            <mxPoint x="560" y="450" as="sourcePoint" />
            <mxPoint x="730" y="530" as="targetPoint" />
          </mxGeometry>
        </mxCell>
        <mxCell id="37ncI2-MZNdE6VhE76FK-45" value="" style="endArrow=classic;startArrow=classic;html=1;rounded=0;entryX=0.5;entryY=1;entryDx=0;entryDy=0;" edge="1" parent="1" target="37ncI2-MZNdE6VhE76FK-33">
          <mxGeometry width="50" height="50" relative="1" as="geometry">
            <mxPoint x="930" y="370" as="sourcePoint" />
            <mxPoint x="940" y="520" as="targetPoint" />
          </mxGeometry>
        </mxCell>
        <mxCell id="37ncI2-MZNdE6VhE76FK-46" value="" style="endArrow=classic;startArrow=classic;html=1;rounded=0;entryX=0.5;entryY=1;entryDx=0;entryDy=0;exitX=0.5;exitY=0;exitDx=0;exitDy=0;" edge="1" parent="1" source="37ncI2-MZNdE6VhE76FK-3" target="37ncI2-MZNdE6VhE76FK-2">
          <mxGeometry width="50" height="50" relative="1" as="geometry">
            <mxPoint x="940" y="380" as="sourcePoint" />
            <mxPoint x="940" y="340" as="targetPoint" />
          </mxGeometry>
        </mxCell>
        <mxCell id="37ncI2-MZNdE6VhE76FK-47" value="call" style="text;html=1;align=center;verticalAlign=middle;resizable=0;points=[];autosize=1;strokeColor=none;fillColor=none;" vertex="1" parent="1">
          <mxGeometry x="930" y="515" width="40" height="30" as="geometry" />
        </mxCell>
        <mxCell id="37ncI2-MZNdE6VhE76FK-48" value="call" style="text;html=1;align=center;verticalAlign=middle;resizable=0;points=[];autosize=1;strokeColor=none;fillColor=none;" vertex="1" parent="1">
          <mxGeometry x="930" y="340" width="40" height="30" as="geometry" />
        </mxCell>
        <mxCell id="37ncI2-MZNdE6VhE76FK-49" value="call" style="text;html=1;align=center;verticalAlign=middle;resizable=0;points=[];autosize=1;strokeColor=none;fillColor=none;" vertex="1" parent="1">
          <mxGeometry x="930" y="155" width="40" height="30" as="geometry" />
        </mxCell>
      </root>
    </mxGraphModel>
  </diagram>
</mxfile>
